<svg version="1.2" xmlns="http://www.w3.org/2000/svg" viewBox="0 0 127 57" width="127" height="57">
	<title>Group 48607-svg</title>
	<defs>
		<clipPath clipPathUnits="userSpaceOnUse" id="cp1">
			<path d="m-16-28h168.59v119.39h-168.59z"/>
		</clipPath>
	</defs>
	<style>
		.s0 { fill: #0e2848 }
		.s1 { fill: #154085 }
		.s2 { fill: #153f86 }
		.s3 { fill: #2a7bbe }
		.s4 { fill: #6db5e0 }
		.s5 { fill: #154284 }
	</style>
	<g id="Clip-Path: Group_48521" clip-path="url(#cp1)">
		<g id="Group_48521">
			<path id="Path_46423" fill-rule="evenodd" class="s0" d="m119.4 0.9q0.2 0 0.4 0 0.2 0 0.4 0.1 0.2 0 0.4 0.1 0.1 0.1 0.3 0.2 0.2 0.1 0.4 0.2 0.1 0.1 0.3 0.3 0.1 0.1 0.2 0.3 0.2 0.1 0.2 0.3 0.2 0.3 0.4 0.7 0.1 0.4 0.1 0.8 0 0.4-0.1 0.8-0.1 0.4-0.3 0.8-0.1 0.1-0.3 0.3-0.1 0.2-0.2 0.3-0.2 0.1-0.3 0.3-0.2 0.1-0.4 0.2-0.3 0.2-0.7 0.3-0.4 0.1-0.8 0.1-0.4 0-0.8-0.1-0.4-0.1-0.7-0.3-0.2-0.1-0.4-0.2-0.1-0.2-0.3-0.3-0.1-0.1-0.2-0.3-0.2-0.2-0.3-0.3-0.2-0.4-0.3-0.8-0.1-0.4-0.1-0.8 0-0.4 0.1-0.8 0.2-0.4 0.4-0.7 0.1-0.2 0.2-0.3 0.1-0.2 0.2-0.3 0.2-0.2 0.4-0.3 0.1-0.1 0.3-0.2 0.2-0.1 0.4-0.2 0.1-0.1 0.3-0.1 0.2-0.1 0.4-0.1 0.2 0 0.4 0zm0 0.5q-0.2 0-0.3 0-0.2 0-0.3 0.1-0.2 0-0.4 0.1-0.1 0-0.3 0.1-0.1 0.1-0.2 0.2-0.2 0.1-0.3 0.2-0.1 0.1-0.2 0.3-0.1 0.1-0.2 0.2-0.2 0.3-0.3 0.7 0 0.3 0 0.6-0.1 0.4 0 0.7 0.1 0.3 0.3 0.6 0.1 0.1 0.2 0.3 0.1 0.1 0.2 0.2 0.1 0.2 0.2 0.3 0.2 0.1 0.3 0.1 0.3 0.2 0.6 0.3 0.4 0.1 0.7 0.1 0.3 0 0.7-0.1 0.3-0.1 0.6-0.3 0.1 0 0.3-0.1 0.1-0.1 0.2-0.3 0.1-0.1 0.2-0.2 0.1-0.2 0.2-0.3 0.2-0.3 0.3-0.6 0-0.3 0-0.7 0-0.3 0-0.6-0.1-0.4-0.3-0.7-0.1-0.1-0.2-0.2-0.1-0.2-0.2-0.3-0.1-0.1-0.3-0.2-0.1-0.1-0.2-0.2-0.2-0.1-0.3-0.1-0.2-0.1-0.4-0.1-0.1-0.1-0.3-0.1-0.1 0-0.3 0zm-1.3 4.2v-3.3h1.1q0.1 0 0.2 0 0.1 0 0.2 0 0.1 0.1 0.2 0.1 0.1 0 0.2 0 0.1 0 0.2 0.1 0 0 0.1 0 0 0.1 0.1 0.1 0 0.1 0 0.1 0.1 0.1 0.1 0.1 0 0.1 0.1 0.2 0 0 0 0.1 0 0.1 0 0.1 0 0.1 0 0.2 0 0.1-0.1 0.2 0 0 0 0.1-0.1 0.1-0.2 0.1 0 0.1-0.1 0.2-0.1 0-0.2 0.1-0.1 0-0.2 0 0 0-0.1 0 0 0.1 0 0.1 0.1 0 0.1 0 0 0 0.1 0.1 0 0 0 0 0.1 0.1 0.2 0.2 0 0 0.1 0.1 0.1 0.1 0.1 0.2 0.1 0.1 0.1 0.2l0.4 0.6h-0.6l-0.3-0.5q-0.1-0.1-0.1-0.2-0.1-0.1-0.2-0.2 0-0.1-0.1-0.2-0.1-0.1-0.2-0.2 0 0-0.1 0 0 0-0.1-0.1 0 0-0.1 0 0 0-0.1 0h-0.3v1.4zm0.5-1.8h0.7q0.1 0 0.1 0 0.1 0 0.2-0.1 0.1 0 0.1 0 0.1 0 0.2-0.1 0 0 0.1-0.1 0 0 0 0 0-0.1 0.1-0.1 0-0.1 0-0.1 0-0.1 0-0.1 0 0-0.1-0.1 0 0 0 0 0-0.1 0-0.1 0 0-0.1-0.1 0 0 0 0 0 0-0.1 0 0-0.1 0-0.1-0.1 0-0.2 0 0 0-0.1 0-0.1 0-0.1 0-0.1 0-0.2 0h-0.6z"/>
			<path id="Path_46424" fill-rule="evenodd" class="s1" d="m99.9 25.9q-1.1-0.3-2.1-0.8-1-0.4-2-1.1-0.9-0.6-1.7-1.5c-1.2-1.1-2.2-2.6-2.9-4.1-0.6-1.6-1-3.3-1-5 0-1.7 0.4-3.3 1-4.9 0.7-1.6 1.7-3 2.9-4.2 1.2-1.2 2.6-2.1 4.2-2.8 1.6-0.6 3.3-0.9 5-0.9 1.7 0 3.4 0.3 5 0.9 1.5 0.7 3 1.6 4.2 2.8q0.9 0.9 1.6 2 0.8 1 1.3 2.2 0.5 1.2 0.7 2.4 0.3 1.3 0.2 2.6v7.8q-1.6 0.8-3.4 1.6-1.7 0.7-3.5 1.3-1.8 0.6-3.6 1.1-1.8 0.6-3.6 0.9-1.2 0-2.3-0.3zm-3-16.7q-0.4 0.6-0.7 1.3-0.3 0.7-0.4 1.4-0.2 0.8-0.2 1.6 0 0.7 0.2 1.5 0.1 0.7 0.4 1.4 0.3 0.7 0.7 1.3 0.4 0.7 1 1.2 0.5 0.6 1.1 1 0.6 0.4 1.3 0.7 0.7 0.3 1.5 0.5 0.7 0.1 1.5 0.1h7.6v-7.7q0-0.8-0.2-1.5-0.1-0.8-0.4-1.5-0.3-0.7-0.7-1.3-0.4-0.7-0.9-1.2-1.1-1.1-2.5-1.7-1.4-0.6-2.9-0.6-1.6 0-3 0.6-1.4 0.6-2.4 1.7-0.6 0.5-1 1.2z"/>
			<path id="Path_46425" class="s2" d="m84.7 9.7q-0.5-0.1-1-0.3-0.4-0.2-0.9-0.5-0.4-0.2-0.7-0.6-0.4-0.4-0.7-0.8-0.3-0.4-0.5-0.9-0.2-0.4-0.3-0.9-0.1-0.5 0-1h6.3q0.2 0 0.5 0 0.2 0.1 0.4 0.2 0.3 0.1 0.5 0.2 0.2 0.2 0.4 0.3 0.2 0.2 0.3 0.4 0.1 0.2 0.2 0.5 0.1 0.2 0.2 0.5 0 0.2 0 0.5 0 0.2 0 0.5-0.1 0.2-0.2 0.4-0.1 0.3-0.2 0.5-0.1 0.2-0.3 0.4-0.2 0.1-0.4 0.3-0.2 0.1-0.5 0.2-0.2 0.1-0.4 0.2-0.3 0-0.5 0h-1.2q-0.5 0-1-0.1z"/>
			<path id="Path_46426" class="s1" d="m19.3 23v-9.5q0-1.3 0.2-2.6 0.2-1.2 0.7-2.4 0.5-1.2 1.3-2.2 0.7-1.1 1.6-2c1.2-1.2 2.6-2.1 4.2-2.8 1.6-0.6 3.3-0.9 5-0.9 1.7 0 3.4 0.3 5 0.9 1.5 0.7 3 1.6 4.2 2.8q0.9 0.9 1.6 2 0.8 1 1.2 2.2 0.5 1.2 0.8 2.4 0.2 1.3 0.2 2.6v11.7q-1.4-0.2-2.8-0.4-0.5-0.1-1.1-0.2-0.3-0.3-0.6-0.8-0.3-0.4-0.5-0.9-0.2-0.5-0.3-1-0.1-0.5-0.1-1v-7.4q0-0.8-0.1-1.5-0.2-0.8-0.5-1.5-0.2-0.7-0.7-1.3-0.4-0.7-0.9-1.2-0.5-0.6-1.1-1-0.7-0.4-1.4-0.7-0.6-0.3-1.4-0.5-0.7-0.1-1.5-0.1-0.7 0-1.5 0.1-0.7 0.2-1.4 0.4-0.7 0.3-1.4 0.8-0.6 0.4-1.1 1-0.5 0.5-1 1.1-0.4 0.7-0.7 1.4-0.2 0.7-0.4 1.4-0.1 0.8-0.1 1.6v7.4q0 0.2 0 0.5-0.1 0.3-0.1 0.5-0.1 0.3-0.1 0.5-0.1 0.2-0.2 0.5-0.4 0-0.8 0-2.2 0-4.2 0.1z"/>
			<path id="Path_46427" fill-rule="evenodd" class="s1" d="m57.3 26.1q-1.3-0.3-2.4-0.7-1.2-0.5-2.3-1.2-1-0.7-2-1.7c-1.2-1.1-2.1-2.6-2.8-4.1-0.7-1.6-1-3.3-1-5 0-1.7 0.3-3.3 1-4.9 0.7-1.6 1.6-3 2.8-4.2 1.3-1.2 2.7-2.1 4.3-2.8 1.6-0.6 3.2-0.9 4.9-0.9 1.8 0 3.4 0.3 5 0.9 1.6 0.7 3 1.6 4.2 2.8q1 0.9 1.7 2 0.7 1 1.2 2.2 0.5 1.2 0.8 2.4 0.2 1.3 0.2 2.6v12.8h-13.1q-1.2 0-2.5-0.2zm-3.8-16.9q-0.4 0.6-0.7 1.3-0.3 0.7-0.5 1.4-0.1 0.8-0.1 1.6 0 0.7 0.1 1.5 0.2 0.7 0.5 1.4 0.3 0.7 0.7 1.3 0.4 0.7 0.9 1.2 0.5 0.6 1.2 1 0.6 0.4 1.3 0.7 0.7 0.3 1.4 0.4 0.8 0.2 1.5 0.2h7.6v-7.7q0-0.8-0.1-1.6-0.1-0.7-0.4-1.4-0.3-0.7-0.7-1.3-0.4-0.7-1-1.2-1-1.1-2.4-1.7-1.5-0.6-3-0.6-1.5 0-2.9 0.6-1.4 0.6-2.5 1.7-0.5 0.5-0.9 1.2z"/>
			<path id="Path_46428" class="s1" d="m84.9 26.1q-1.2-0.3-2.4-0.7-1.2-0.5-2.3-1.2-1-0.7-1.9-1.7-1-0.8-1.7-1.9-0.7-1-1.2-2.2-0.5-1.2-0.7-2.4-0.3-1.3-0.3-2.5v-12.9q1.1 0 2.1 0.4 1 0.4 1.8 1.1 0.7 0.8 1.1 1.8 0.4 1 0.4 2.1v7.5q0 0.7 0.2 1.5 0.1 0.7 0.4 1.4 0.3 0.7 0.7 1.3 0.4 0.7 0.9 1.2 0.6 0.6 1.2 1 0.6 0.4 1.3 0.7 0.7 0.3 1.4 0.4 0.8 0.2 1.5 0.2h0.5q0.5 0 1 0.1 0.5 0.1 1 0.3 0.5 0.1 0.9 0.4 0.4 0.3 0.7 0.7 0.4 0.3 0.7 0.7 0.3 0.5 0.5 0.9 0.2 0.5 0.3 1 0.1 0.5 0.1 1h-5.7q-1.2 0-2.5-0.2z"/>
			<path id="Path_46429" class="s3" d="m0.9 31.9q1.4-0.9 2.8-1.7 1.5-0.7 3-1.3 1.5-0.7 3-1.1c12-3.7 26.1-1.4 42.9 1.9 20.8 4.1 41.5 11.6 58.9 4.4-14.7 10.2-36.9 4.2-59-0.2-20.4-4.1-40.4-9.4-54.2-0.1q1.3-1 2.6-1.9z"/>
			<path id="Path_46430" class="s4" d="m123.5 22.7q-1.7 2-3.8 3.8-2.1 1.7-4.5 3-2.4 1.3-5 2.2c-9.2 3.3-22.7 3-42.6-1.5 36.3 4.4 52.7-7 59-12q-1.3 2.4-3.1 4.5z"/>
			<path id="Path_46431" class="s5" d="m43.5 49.1q0 0.1 0 0.2 0 0 0 0.1 0 0.1-0.1 0.1 0 0.1 0 0.2 0 0.1-0.1 0.1 0 0.1 0 0.2-0.1 0-0.1 0.1 0 0-0.1 0.1c-0.2 0.7-0.6 1.9-1.2 3.4q-0.1 0.3-0.1 0.5-0.1 0.3-0.2 0.5-0.2 0.2-0.3 0.5-0.1 0.2-0.3 0.4h-0.1q-0.2-0.1-0.7-0.2v-0.1q-0.4-0.5-0.7-1.1-0.3-0.6-0.6-1.2-0.2-0.6-0.4-1.2-0.1-0.6-0.2-1.3-0.1-0.2-0.1-0.4-0.1-0.3-0.1-0.5-0.1-0.2-0.1-0.5 0-0.2 0-0.4 0-0.2 0-0.3-0.1-0.1-0.1-0.3 0-0.1 0-0.2 0-0.2 0-0.3-0.1-0.4-0.1-0.7c-0.2 0.7-0.5 1.6-0.9 2.9q-0.1 0.2-0.2 0.4 0 0.2-0.1 0.3 0 0.2-0.1 0.4 0 0.2 0 0.4-0.1 0.2-0.1 0.3-0.1 0.2-0.1 0.4-0.1 0.2-0.2 0.3-0.1 0.2-0.1 0.4 0 0 0 0 0 0.1 0 0.1 0 0 0 0 0 0.1 0 0.1 0 0.1 0 0.2-0.1 0.1-0.1 0.2 0 0.1-0.1 0.2 0 0.1-0.1 0.2 0 0.1-0.1 0.2 0 0.1-0.1 0.2 0 0.1 0 0.2-0.1 0.1-0.1 0.2 0 0.1 0 0.2 0 0.1-0.1 0.2 0 0.2 0 0.3-0.1 0.1-0.1 0.2 0 0.1-0.1 0.2 0 0.1 0 0.2 0 0.1 0 0.2-0.1 0.2-0.1 0.3 0 0.1-0.1 0.2 0 0.1-0.1 0.1-0.1 0.1-0.2 0.1-0.1 0-0.2 0c-0.5 0-0.6-0.2-0.6-0.4q0-0.1 0-0.1 0-0.1 0-0.2 0 0 0.1-0.1 0 0 0-0.1 0 0 0 0 0-0.1 0-0.1 0-0.1 0-0.1 0 0 0-0.1 0.7-2 1.8-5.5 1.2-3.7 1.8-5.4h0.1q0-0.1 0.1-0.1 0 0 0.1 0 0-0.1 0.1-0.1 0 0 0.1 0c0.5 0 0.5 0 0.5 0.1q0 0 0 0 0 0 0 0 0 0 0 0 0 0 0 0 0 0.1 0.1 0.1 0 0.1 0.1 0.1 0 0 0.1 0.1 0 0 0.1 0v0.1q0 0.3 0 0.5 0 0.3 0 0.5 0.1 0.2 0.1 0.5 0.1 0.2 0.1 0.4v0.1q0 0.1 0 0.1 0 0.1 0 0.2 0 0.1 0 0.1 0 0.1 0 0.2c0 0.2 0 0.6 0.1 1.2q0.1 0.8 0.1 1.1 0.1 0.5 0.2 1 0.1 0.6 0.3 1.1 0.2 0.5 0.4 0.9 0.2 0.5 0.4 1 0 0 0.1-0.1 0 0 0 0 0 0 0-0.1 0.1 0 0.1 0 0-0.1 0-0.3 0.1-0.1 0.1-0.2 0.1-0.2 0.1-0.3 0.1-0.1 0.2-0.3 0-0.1 0.1-0.2 0-0.2 0.1-0.3 0-0.1 0.1-0.3 0-0.1 0-0.2l1.4-3.7q0.2-0.4 0.4-0.9 0.2-0.4 0.4-0.9 0.2-0.4 0.5-0.8 0.2-0.4 0.5-0.8v-0.1c0.4-0.2 0.5-0.2 0.5-0.2 0.4 0 0.4 0.2 0.4 0.4v0.1l-0.2 0.4q0 0 0 0 0 0.1 0 0.1 0 0 0 0 0 0.1 0 0.1v0.1h-0.1c-0.1 0-0.2 0.2-0.3 0.4q0 0 0 0.1 0 0-0.1 0.1 0 0 0 0.1-0.1 0-0.1 0-0.1 0.2-0.4 1-0.1 0.2-0.1 0.3-0.1 0.1-0.1 0.2 0 0.2-0.1 0.3 0 0.1 0 0.3-0.1 0.1-0.1 0.3-0.1 0.1-0.2 0.3 0 0.1-0.1 0.3-0.1 0.1-0.2 0.2"/>
			<path id="Path_46432" fill-rule="evenodd" class="s5" d="m48.6 54.4q0 0.1 0 0.1 0 0 0 0 0 0.1 0 0.1 0 0 0 0.1 0 0 0 0.1 0 0.1-0.1 0.2 0 0.1-0.1 0.1 0 0.1-0.1 0.1-0.2 0.1-0.7 0.4h-0.1q-0.1 0-0.2 0-0.1-0.1-0.2-0.1-0.2-0.1-0.3-0.1-0.1-0.1-0.2-0.1v-0.1q0-0.1-0.1-0.1 0-0.1 0-0.2 0 0 0-0.1-0.1 0-0.1-0.1 0-0.1 0-0.1 0-0.1-0.1-0.1 0-0.1 0-0.1 0-0.1 0-0.1 0 0 0 0 0 0-0.1 0.1 0 0 0 0 0 0 0 0-0.8 0.9-0.9 1.1-0.1 0.1-0.2 0.1-0.2 0.1-0.3 0.2-0.2 0-0.3 0.1-0.2 0-0.3 0 0 0-0.1 0 0 0 0 0-0.1 0-0.1 0 0 0-0.1 0-0.1-0.1-0.3-0.3-0.1-0.1-0.2-0.3 0-0.2-0.1-0.4 0-0.1 0-0.3 0-0.3 0-0.6 0-0.2 0.1-0.5 0-0.3 0.1-0.5 0-0.3 0.1-0.6 0.2-0.5 0.5-1 0.3-0.4 0.7-0.9 0.4-0.4 0.8-0.8 0.4-0.3 0.9-0.6h0.4q0.5 0 0.6 0.6 0 0 0 0 0 0 0 0 0 0.1-0.1 0.1 0 0 0 0 0.1 0 0.1-0.1 0.1 0 0.2-0.1 0 0 0.1 0 0-0.1 0.1-0.1h0.1v0.1q0.1 0 0.1 0.1 0 0 0.1 0.1 0 0 0 0.1 0 0.1 0 0.2 0 0 0 0.1 0 0 0 0.1 0 0 0 0.1-0.1 0-0.1 0.1l-0.1 0.3q-0.1 0.4-0.2 0.7-0.2 0.4-0.3 0.7-0.1 0.4-0.2 0.7 0 0.4-0.1 0.8 0 0.1 0 0.3 0 0.1 0.1 0.3 0 0.1 0.1 0.3 0 0.1 0.1 0.2 0.1 0 0.5-0.2c0.4-0.2 0.5-0.2 0.5-0.2h0.1zm-2.7-0.8q0.1-0.2 0.3-0.4 0.1-0.2 0.2-0.4 0.1-0.3 0.1-0.5 0.1-0.2 0.2-0.4 0.1-0.2 0.1-0.4 0.1-0.2 0.2-0.4 0-0.2 0.1-0.4-0.1 0.2-0.2 0.4-0.1 0.1-0.6 0.3h-0.1v-0.1q0-0.2 0-0.3 0.1-0.1 0.1-0.2 0.1-0.1 0.1-0.2 0.1-0.1 0.1-0.2 0.1 0 0.1-0.3 0 0 0 0 0 0 0 0 0.1 0 0.1 0 0 0 0 0 0 0 0-0.1-0.1 0-0.1 0 0 0 0 0 0 0 0 0 0 0 0 0 0 0.1-0.1 0.1 0 0 0 0 0 0.1 0 0.1h-0.1q0 0 0 0 0 0.1-0.1 0.1 0 0 0 0 0 0-0.1 0.1-0.4 0.4-0.8 0.8-0.3 0.5-0.6 1-0.3 0.6-0.4 1.1-0.2 0.6-0.3 1.2 0.1 0.4 0.3 0.5 0.2-0.1 0.3-0.1 0.2-0.1 0.3-0.3 0.2-0.1 0.3-0.2 0.1-0.2 0.2-0.4 0.2-0.2 0.4-0.4z"/>
			<path id="Path_46433" fill-rule="evenodd" class="s5" d="m64.3 49.7q0 0 0-0.1 0 0 0-0.1-0.1 0-0.1 0-0.2 0-0.5 0.2-0.2 0.1-0.4 0.2-0.3 0.2-0.5 0.3-0.2 0.2-0.4 0.4-0.3 0.4-0.7 0.8-0.1 0.1-0.2 0.2-0.1 0.1-0.1 0.2-0.1 0.1-0.2 0.2 0 0.2-0.1 0.3h-0.1c0 0 0 0.1-0.1 0.5q-0.1 0-0.1 0.1 0 0.1 0 0.1-0.1 0.1-0.1 0.1 0 0.1-0.1 0.2 0 0.1-0.1 0.3-0.1 0.1-0.1 0.3-0.1 0.1-0.2 0.3 0 0.2-0.1 0.3 0 0.1 0 0.2 0 0.1 0 0.1 0 0.1 0 0.2 0 0.1 0 0.2 0 0.1 0 0.2-0.1 0.1-0.1 0.1-0.1 0.1-0.2 0.2-0.1 0-0.2 0.1l-0.1-0.1q0-0.1 0 0 0 0-0.1 0 0 0 0 0-0.1 0-0.1 0.1 0 0 0 0c-0.1 0-0.3-0.1-0.4-0.3v-0.1q0.1-0.4 0.3-1.1 0 0 0 0-0.1 0-0.1 0 0 0.1 0 0.1 0 0-0.1 0-0.2 0.2-0.6 0.6-0.1 0.1-0.2 0.1-0.1 0.1-0.3 0.1-0.1 0-0.2 0.1-0.1 0-0.3 0c-0.2 0-0.6-0.1-0.8-0.7q0-0.1 0-0.1-0.1 0-0.1-0.1 0 0 0-0.1 0 0 0 0 0 0 0-0.1 0 0 0 0 0-0.1-0.1-0.1 0 0 0 0c-0.1 0.1-0.4 0.4-1.1 1.1q-0.2 0.2-0.5 0.4-0.2 0.1-0.5 0.2-0.2 0.1-0.5 0.2-0.3 0-0.5 0.1h-0.1v-0.1q-0.1-0.1-0.2-0.2-0.1-0.2-0.2-0.3-0.1-0.2-0.1-0.4-0.1-0.1-0.1-0.3-0.2 0.2-0.4 0.4-0.2 0.1-0.4 0.3-0.2 0.1-0.4 0.2-0.3 0.1-0.5 0.1-0.1 0-0.1 0.1-0.1 0-0.1 0-0.1 0-0.1 0 0 0-0.1 0-0.1 0-0.2 0-0.2-0.1-0.3-0.1-0.1-0.1-0.2-0.1-0.1-0.1-0.2-0.2-0.1-0.1-0.2-0.3-0.1-0.2-0.1-0.4-0.1-0.1-0.1-0.3 0-0.2 0-0.4 0-0.3 0-0.7 0-0.3 0.1-0.6 0.1-0.4 0.2-0.7 0.1-0.3 0.2-0.6 0.1-0.1 0.2-0.2 0-0.1 0.1-0.3 0-0.1 0.1-0.2 0-0.1 0.1-0.3-0.2 0.1-0.3 0.1-0.2 0.1-0.3 0.1-0.1 0.1-0.3 0.2-0.1 0.1-0.2 0.2v0.1h-0.1q-0.4 0-0.6-0.7v-0.1q0-0.2 0.5-0.5 0.1-0.1 0.2-0.1 0.1-0.1 0.2-0.1 0.2-0.1 0.3-0.1 0.1 0 0.2-0.1 0.4 0 0.9-0.1 0.2-0.4 0.4-0.8 0.2-0.4 0.3-0.8 0.2-0.4 0.3-0.9 0.2-0.4 0.3-0.8v-0.1q0 0 0.1-0.1 0 0 0.1 0 0-0.1 0.1-0.1 0 0 0.1 0 0.1 0 0.2 0 0.1 0.1 0.1 0.1 0.1 0.1 0.2 0.2 0 0 0.1 0.1v0.1q-0.1 0.4-0.1 0.8-0.1 0.4-0.3 0.8-0.1 0.3-0.3 0.7-0.2 0.4-0.4 0.7 0.3 0.1 0.7 0.1 0.1 0 0.2 0 0.1 0.1 0.2 0.1 0.2 0.1 0.3 0.1 0.1 0.1 0.1 0.2h0.1v0.5h-0.1q-0.3 0-1.2 0-0.1 0-0.2 0-0.1 0-0.2 0-0.1 0-0.2 0-0.1 0-0.2 0.1-0.3 0.4-0.5 0.9-0.2 0.5-0.4 1-0.1 0.5-0.2 1-0.1 0.5-0.2 1.1 0 0 0.1 0.1 0 0 0 0.1 0 0 0 0.1 0 0 0 0.1c0 0 0.1 0.1 0.4 0.1q0 0 0.1 0 0 0 0.1 0 0.1 0 0.1 0 0.1 0 0.1 0 0.1-0.1 0.2-0.1 0.1 0 0.2-0.1 0.1 0 0.2 0 0.1-0.1 0.1-0.1 0.1-0.1 0.2-0.2 0.1 0 0.2 0 0.2-0.1 0.3-0.1 0.1 0 0.2 0 0-0.1 0-0.2 0-0.1 0-0.2 0-0.1 0.1-0.2 0-0.1 0-0.2 0.1-0.7 0.1-0.9 0.1-0.4 0.2-0.8 0.2-0.4 0.3-0.7 0.2-0.4 0.3-0.8 0.2-0.3 0.4-0.6v-0.1h0.1q0 0 0.1 0 0.1 0 0.2 0 0 0.1 0.1 0.1 0.1 0 0.1 0.1h0.1q0 0 0 0.1 0 0 0 0.1 0 0 0 0 0 0.1 0 0.1 0 0.1 0 0.1 0 0.1 0 0.2 0 0-0.1 0.1 0 0 0 0.1-0.1 0-0.1 0.1 0 0-0.1 0.1 0 0 0 0.1 0 0-0.1 0.1-0.3 0.9-0.7 2.5-0.1 0.5-0.1 0.9 0 0 0 0.1 0 0.1 0 0.2 0 0.1 0.1 0.2 0 0.1 0 0.2 0.1-0.1 0.2-0.1 0.1 0 0.2 0 0.1-0.1 0.2-0.1 0 0 0.1-0.1l0.2-0.1q0.1-0.1 0.5-0.4 0.1-0.2 0.2-0.3 0.2-0.2 0.3-0.4 0.1-0.1 0.2-0.3 0.2-0.2 0.3-0.3 0.2-0.2 0.3-0.3 0.1-0.2 0.2-0.4 0.1-0.2 0.2-0.3 0-0.2 0.1-0.4v-0.1q0.1-0.2 0.2-0.5 0.1-0.2 0.3-0.5 0.1-0.3 0.3-0.5 0.1-0.3 0.3-0.5 0-0.1 0.1-0.1 0 0 0 0 0.1 0 0.1 0 0 0 0.1 0 0 0 0.1 0 0 0 0.1 0 0 0.1 0.1 0.1 0 0.1 0 0.1 0 0.1 0 0.1 0 0.1 0 0.1 0.1 0.1 0.1 0.1 0 0 0 0.1 0 0.1-0.1 0.2 0 0.1 0 0.2 0 0.1-0.1 0.2 0 0.1-0.1 0.2 0 0.1-0.1 0.1 0 0.1 0 0.2-0.1 0.1-0.1 0.2 0 0.1-0.1 0.2-0.1 0.2-0.3 0.5-0.1 0.2-0.2 0.5 0 0.2-0.1 0.5 0 0.2-0.1 0.5 0.1 0.1 0.1 0.5 0 0.3 0.1 0.3 0.1 0 0.2 0 0 0 0.1 0 0-0.1 0.1-0.1 0.1 0 0.1 0 0.3-0.3 0.4-0.3 0.3-0.3 0.8-0.6v-0.1l0.2 0.2q0.4-1.3 0.9-3.2 0-0.1 0-0.1 0 0 0-0.1 0 0 0 0-0.1-0.1-0.1-0.1c0-0.2 0.1-0.3 0.4-0.4q0 0 0.1 0 0 0 0.1 0 0 0 0 0 0.1 0 0.1 0c0.4 0 0.5 0.2 0.5 0.3q0 0.1 0 0.1 0 0 0 0 0 0 0 0.1 0 0 0 0v0.1q0 0.1-0.1 0.1 0 0.1 0 0.1 0 0.1 0 0.1 0 0.1 0 0.2 0.5-0.6 1.1-1.1 0.1-0.2 0.3-0.3 0.2-0.2 0.4-0.3 0.2-0.1 0.4-0.1 0.3-0.1 0.5-0.1 0.1 0 0.2 0 0.1 0 0.2 0 0.1 0 0.2 0 0.1 0.1 0.2 0.1 0.1 0.1 0.1 0.2 0.1 0.1 0.1 0.1 0 0.1 0.1 0.2 0 0.1 0 0.2 0 0.1 0 0.3-0.1 0.1-0.1 0.2 0 0.2 0 0.3 0 0.2-0.1 0.3v0.1h-0.4q-0.1-0.1-0.1-0.2 0-0.1 0-0.2-0.1-0.1-0.1-0.3 0-0.1 0-0.2 0 0 0-0.1zm-3.1 1v0.1l0.1-0.1c0 0-0.1 0-0.1 0z"/>
			<path id="Path_46434" fill-rule="evenodd" class="s5" d="m68.9 54.4q0 0.1 0 0.1 0 0 0 0 0 0.1 0 0.1 0 0 0 0.1 0 0 0 0.1 0 0.1-0.1 0.2 0 0.1-0.1 0.1 0 0.1-0.1 0.1-0.3 0.1-0.7 0.4h-0.1q-0.1 0-0.2 0-0.1-0.1-0.3-0.1-0.1-0.1-0.2-0.1-0.1-0.1-0.2-0.1v-0.1q-0.1-0.1-0.1-0.1 0-0.1 0-0.2 0 0-0.1-0.1 0-0.1 0-0.1 0-0.1 0-0.1-0.1-0.1-0.1-0.1 0-0.1 0-0.1 0-0.1 0-0.1 0 0 0 0-0.1 0-0.1 0.1 0 0 0 0 0 0 0 0c-0.6 0.7-0.8 1-0.9 1.1q-0.1 0.1-0.3 0.1-0.1 0.1-0.2 0.2-0.2 0-0.3 0.1-0.2 0-0.3 0-0.1 0-0.1 0 0 0-0.1 0 0 0 0 0 0 0-0.1 0-0.2-0.1-0.3-0.3-0.1-0.1-0.2-0.3-0.1-0.2-0.1-0.4 0-0.1 0-0.3 0-0.3 0-0.6 0-0.2 0-0.5 0.1-0.3 0.1-0.5 0.1-0.3 0.2-0.6 0.2-0.5 0.5-1 0.3-0.4 0.7-0.9 0.3-0.4 0.8-0.8 0.4-0.3 0.9-0.6h0.4q0.5 0 0.5 0.6 0 0 0 0 0 0 0 0 0 0.1 0 0.1 0 0 0 0 0.1 0 0.1-0.1 0.1 0 0.2-0.1 0 0 0.1 0 0-0.1 0.1-0.1h0.1v0.1q0 0 0.1 0.1 0 0 0.1 0.1 0 0 0 0.1 0 0.1 0 0.2 0 0 0 0.1 0 0 0 0.1 0 0 0 0.1-0.1 0-0.1 0.1 0 0 0 0 0 0.1 0 0.1 0 0.1-0.1 0.1 0 0.1 0 0.1-0.1 0.4-0.3 0.7-0.1 0.4-0.2 0.7-0.1 0.4-0.2 0.7-0.1 0.4-0.1 0.8 0 0.1 0 0.3 0 0.1 0 0.3 0.1 0.1 0.2 0.3 0 0.1 0.1 0.2 0.1 0 0.5-0.2 0-0.1 0.1-0.1 0 0 0.1 0 0.1-0.1 0.1-0.1 0.1 0 0.2 0zm-2.7-0.8q0.2-0.2 0.3-0.4 0.2-0.2 0.3-0.4 0.1-0.3 0.1-0.5c0.1-0.3 0.3-0.8 0.6-1.6q-0.1 0.2-0.3 0.3 0 0.2-0.5 0.4h-0.2l0.1-0.1q0-0.2 0-0.3 0-0.1 0.1-0.2 0-0.1 0.1-0.2 0-0.1 0.1-0.2 0.1-0.1 0.1-0.3 0 0 0 0 0 0 0 0 0 0 0 0 0 0 0 0 0 0 0-0.1 0 0 0 0 0 0 0 0 0 0 0 0 0 0 0 0-0.1 0.1-0.1 0.1 0 0 0 0-0.1 0.1-0.1 0.1 0 0-0.2 0.2-0.4 0.4-0.8 0.8-0.3 0.5-0.6 1-0.3 0.6-0.5 1.1-0.1 0.6-0.2 1.2c0 0.2 0.1 0.5 0.3 0.5q0.1-0.1 0.3-0.1 0.2-0.1 0.3-0.3 0.2-0.1 0.3-0.2 0.1-0.2 0.2-0.4 0.2-0.2 0.3-0.4z"/>
			<path id="Path_46435" class="s5" d="m76.4 52.9q0 0.1-0.1 0.3 0 0.1 0 0.3 0 0.2-0.1 0.3 0 0.2 0 0.3 0 0.2 0.1 0.4 0 0.2 0 0.4 0.1 0.2 0.2 0.4 0.1 0.1 0.2 0.3l0.1 0.1h-0.2q0 0-0.1 0 0 0.1-0.1 0.1 0 0-0.1 0 0 0-0.1 0 0 0-0.1 0-0.1 0-0.2-0.1 0 0-0.1 0-0.1-0.1-0.1-0.1h-0.1q-0.1-0.2-0.1-0.4-0.1-0.2-0.2-0.4 0-0.2 0-0.4-0.1-0.2-0.1-0.4 0-0.2 0.1-0.4 0-0.2 0-0.4 0-0.1 0.1-0.3 0-0.2 0-0.4l0.3-1.2q-0.2 0.2-0.5 0.5-0.2 0.2-0.4 0.4-0.2 0.2-0.4 0.5-0.1 0.2-0.3 0.5-0.2 0.2-0.4 0.5-0.2 0.3-0.4 0.5-0.2 0.3-0.4 0.5-0.3 0.3-0.5 0.5-0.1 0.1-0.2 0.1-0.1 0-0.2 0-0.1 0.1-0.2 0-0.2 0-0.3 0 0 0 0 0-0.1-0.1-0.1-0.1 0 0 0 0 0 0 0-0.1-0.1 0.1-0.2 0.2 0 0.1-0.1 0.1-0.1 0.1-0.2 0.2 0 0-0.1 0.1h-0.1q0 0 0 0-0.1 0-0.1 0 0 0-0.1 0.1 0 0 0 0-0.1 0-0.1 0-0.1 0-0.1 0 0 0-0.1 0.1 0 0-0.1 0 0 0 0 0-0.1-0.1-0.1-0.1-0.1 0-0.1 0-0.1 0-0.1 0-0.1-0.1-0.1-0.1-0.1-0.1-0.1-0.2-0.1 0-0.2-0.1 0 0-0.1-0.1 0-0.1-0.1-0.2 0-0.1 0-0.2-0.1-0.1-0.1-0.3 0-0.1 0-0.2 0-0.3 0.1-0.6v-0.1q0-0.1 0-0.1 0-0.1 0.1-0.2 0-0.1 0-0.1 0-0.1 0-0.2 0.2-1.3 0.5-2.3c0.3-1.3 0.6-2.6 1.1-4q0-0.2 0.1-0.4 0-0.1 0.1-0.3 0-0.1 0.1-0.3 0.1-0.2 0.2-0.3c0.4-0.9 0.4-0.9 0.4-0.9q0-0.1 0.1-0.2 0-0.1 0.1-0.1 0-0.1 0.1-0.2 0-0.1 0.1-0.1 0.1-0.2 0.2-0.2 0.1-0.1 0.3-0.1 0.1 0 0.2 0.1 0.2 0 0.2 0.2h0.1q0 0.1 0 0.2 0 0.1-0.1 0.2 0 0.1-0.1 0.2 0 0.1-0.1 0.1 0 0.1-0.1 0.1 0 0.1 0 0.1 0 0-0.1 0.1 0 0 0.1 0.1l-0.1 0.1q-0.1 0.1-0.1 0.2-0.1 0.1-0.2 0.3 0 0.1-0.1 0.2 0 0.2 0 0.3-0.1 0.1-0.1 0.3 0 0.1-0.1 0.3 0 0.1-0.1 0.3-0.1 0.1-0.1 0.2l-0.3 0.8-0.2 0.6q0.1 0 0.1 0.1 0 0-0.1 0 0 0.1 0 0.1 0 0.1 0 0.1-0.1 0.1-0.2 0.4l-0.3 1q0 0.2-0.1 0.4 0 0.2-0.1 0.3 0 0.2 0 0.4-0.1 0.2-0.1 0.4 0 0.1-0.1 0.1 0 0.1 0 0.2 0 0 0 0.1 0 0 0 0.1 0 0.1-0.1 0.2 0 0 0 0.1 0 0.1 0 0.1-0.1 0.1-0.1 0.2 0 0.1-0.1 0.3 0 0.2 0 0.4 0 0.2 0 0.4 0 0.2 0 0.3v0.1q0 0.1 0 0.1 0 0.1 0 0.1 0 0.1 0 0.2 0 0 0.1 0.1 0 0 0 0 0.1-0.1 0.1-0.1 0.1 0 0.1 0 0.1-0.1 0.1-0.1 0 0 0.1-0.1 0 0 0.1-0.1 0.1 0 0.1 0 0.1-0.1 0.1-0.1 0.1 0 0.1 0 0 0 0.1-0.1 0 0 0 0 0.1 0 0.1 0 0 0 0-0.1 0.3-1 0.6-2.2 0.1-0.3 0.2-0.5 0.1-0.3 0.1-0.6 0.1-0.3 0.1-0.6 0.1-0.3 0.1-0.5v-0.1h0.1q0-0.1 0.2-0.1 0.1-0.1 0.2-0.1 0.1 0 0.2 0.1 0.2 0 0.2 0.2 0.1 0 0.1 0.1 0 0 0.1 0.1 0 0 0 0.1 0 0.1 0 0.1l-0.8 3q0.1-0.1 0.2-0.1 1-1.4 1.3-1.8 0.2-0.2 0.4-0.4 0.2-0.2 0.4-0.4 0.2-0.1 0.5-0.3 0.2-0.2 0.5-0.3 0.2-0.1 0.3 0 0.2 0 0.3 0.2 0.1 0.1 0.1 0.2 0.1 0.2 0.1 0.3 0 0.1 0 0.1 0 0.1 0 0.2-0.1 0-0.1 0.1 0 0 0 0.1 0 0 0 0.1 0 0 0 0.1 0 0 0 0.1 0 0 0 0.1-0.2 0.6-0.3 1.1z"/>
			<path id="Path_46436" class="s5" d="m79.4 47.4q0-0.1 0-0.2 0 0 0-0.1 0.1-0.1 0.1-0.1 0.1-0.1 0.2-0.1 0 0 0 0 0 0 0.1 0 0 0 0 0 0 0 0.1 0 0.1 0 0.3 0 0 0 0 0 0.1 0 0.1 0 0 0 0.1 0 0 0 0-0.1h0.1q0 0.1 0.1 0.1 0.1 0.1 0.1 0.1 0.1 0.1 0.1 0.1 0 0.1 0.1 0.1v0.1q0 0 0 0.1 0 0 0 0.1-0.1 0-0.1 0.1 0 0-0.1 0.1h-0.1q0.1 0 0 0.2h-0.1q-0.1 0-0.2 0-0.9 0-0.9-0.5z"/>
			<path id="Path_46437" fill-rule="evenodd" class="s5" d="m85.9 53.9q0 0.1 0 0.1 0 0 0 0 0.1 0.1 0.1 0.1 0 0 0 0 0 0.1-0.1 0.1 0 0 0 0.1 0 0 0 0 0 0.1-0.1 0.1v0.1q-0.1 0-0.1 0 0 0 0 0 0 0 0 0 0 0 0 0.1v0.1q-0.3 0.2-0.6 0.4-0.4 0.2-0.7 0.4-0.3 0.1-0.7 0.2-0.4 0.2-0.7 0.2h-0.1q-0.2 0-0.3 0-0.1 0-0.3 0-0.1-0.1-0.2-0.1-0.1 0-0.3-0.1-0.1 0-0.2-0.1-0.1-0.1-0.2-0.2 0 0-0.1-0.1-0.1-0.1-0.1-0.3-0.1-0.1-0.1-0.2-0.1-0.1-0.1-0.3 0-0.1 0-0.2 0-0.2 0-0.3 0-0.3 0.1-0.5-0.1 0.1-0.1 0.1-0.1 0.2-0.1 0.4-0.1 0.1-0.3 0.3-0.1 0.1-0.2 0.3c-0.1 0.2-0.3 0.4-0.6 0.8h-0.1q-0.1 0.1-0.2 0.2-0.2 0.1-0.3 0.1-0.2 0.1-0.3 0.1-0.2 0.1-0.3 0.1h-0.1q-0.1 0-0.3-0.1-0.1 0-0.2-0.1-0.1-0.1-0.2-0.2-0.1-0.1-0.2-0.2v-0.1q0-0.1 0-0.2 0 0 0-0.1 0-0.1 0-0.2 0-0.1 0-0.2 0-0.5 0-1 0-0.5 0.1-1.1 0.1-0.5 0.2-1 0.1-0.5 0.3-1 0.1-0.3 0.6-1.3 0 0 0.1-0.1 0 0 0.1 0 0 0 0.1 0 0-0.1 0.1-0.1 0 0 0.1 0.1 0.1 0 0.1 0 0.1 0 0.1 0 0.1 0.1 0.1 0.1 0.1 0 0.1 0.1 0.1 0 0.1 0.1 0 0 0 0.1 0.1 0 0.1 0.1 0 0 0 0.1-0.1 0-0.1 0 0 0 0 0.1 0 0 0 0-0.1 0.2-0.2 0.4-0.1 0.2-0.2 0.3-0.1 0.2-0.2 0.4 0 0.2-0.1 0.4l-0.5 2q0 0.2 0 0.4 0 0.2-0.1 0.4 0 0.2 0 0.4 0.1 0.2 0.1 0.4 0 0 0 0 0 0.1 0 0.1 0.1 0 0.1 0.1 0 0 0 0 0.1 0 0.1 0 0 0 0 0 0 0 0 0 0.1-0.1 0.1-0.1 0 0 0 0 0.1-0.1 0.1-0.1 0 0 0.1 0 0 0 0-0.1 0.1 0 0.2-0.1 0.1-0.1 0.2-0.1 0.1-0.1 0.1-0.2 0.1-0.1 0.2-0.1 0.1-0.1 0.2-0.2 0-0.1 0.1-0.2 0.1-0.1 0.2-0.1 0.2-0.1 0.3-0.1l0.7-0.9v0.1q0.2-0.6 0.5-1.1 0.2-0.5 0.6-1 0.4-0.5 0.8-0.9 0.4-0.4 0.9-0.7 0.1-0.1 0.5-0.1 0.1 0 0.2 0 0.1 0 0.1 0 0.1 0 0.2 0 0.1 0.1 0.1 0.1 0.1 0.1 0.1 0.1 0.1 0.1 0.1 0.2 0.1 0 0.1 0.1 0 0.1 0 0.2-0.1 0.2-0.1 0.5-0.2 0.4-0.4 0.8-0.3 0.4-0.6 0.7-0.3 0.3-0.7 0.6-0.3 0.3-0.7 0.6-0.1 0-0.2 0-0.1 0.1-0.2 0.1-0.1 0-0.1 0-0.1 0.1-0.2 0.1c-0.3 0-0.3 0.1-0.3 0.2v0.1q0 0.1-0.1 0.2 0 0-0.1 0.1 0 0.1 0 0.2 0 0.1 0 0.2 0 0.1 0 0.2 0 0 0.1 0.1 0 0.1 0 0.1 0 0.1 0.1 0.2 0 0.1 0.2 0.2 0.1 0.1 0.2 0.1 0.2 0.1 0.3 0.1 0.1 0 0.3 0l0.1-0.1q0.1 0 0.2 0 0.1 0 0.2 0 0.2 0 0.3-0.1 0.1 0 0.2-0.1c0.3-0.2 0.9-0.5 1.8-0.9h0.1zm-4.8-0.7q0 0.1-0.1 0.2 0.1-0.1 0.1-0.2zm2.2-1.9l0.4-0.3q0.1-0.1 0.2-0.2 0.1-0.2 0.2-0.3 0.1-0.1 0.2-0.2 0-0.2 0.1-0.3-0.3 0.2-0.5 0.4-0.3 0.2-0.5 0.4-0.2 0.2-0.4 0.5-0.2 0.3-0.3 0.5 0.3-0.2 0.6-0.5z"/>
			<path id="Path_46438" class="s5" d="m99.6 49.1q0 0.1 0 0.2 0 0 0 0.1 0 0.1-0.1 0.2 0 0 0 0.1 0 0.1-0.1 0.1 0 0.1 0 0.2-0.1 0-0.1 0.1 0 0-0.1 0.1c-0.2 0.7-0.6 1.9-1.2 3.5q-0.1 0.2-0.1 0.4-0.1 0.3-0.2 0.5-0.1 0.2-0.3 0.5-0.1 0.2-0.3 0.4h-0.1q-0.3-0.1-0.7-0.2v-0.1q-0.4-0.5-0.7-1.1-0.3-0.6-0.5-1.2-0.3-0.6-0.5-1.2-0.1-0.6-0.2-1.3-0.1-0.2-0.1-0.4-0.1-0.3-0.1-0.5 0-0.2-0.1-0.5 0-0.2 0-0.4 0-0.2 0-0.3-0.1-0.1-0.1-0.3 0-0.1 0-0.2 0-0.1 0-0.3-0.1-0.4-0.1-0.7c-0.2 0.7-0.5 1.6-0.9 2.9q-0.1 0.2-0.2 0.4 0 0.2-0.1 0.3 0 0.2-0.1 0.4 0 0.2 0 0.4-0.1 0.2-0.1 0.3-0.1 0.2-0.1 0.4-0.1 0.2-0.2 0.4-0.1 0.1-0.1 0.3 0 0 0 0 0 0.1 0 0.1 0 0 0 0 0 0.1 0 0.1 0 0.1 0 0.2-0.1 0.1-0.1 0.2 0 0.1-0.1 0.2 0 0.1-0.1 0.2 0 0.1-0.1 0.2 0 0.1-0.1 0.2 0 0.1 0 0.2 0 0.1-0.1 0.2 0 0.1 0 0.2 0 0.1-0.1 0.3 0 0.1 0 0.2 0 0.1-0.1 0.2 0 0.1-0.1 0.2 0 0.1 0 0.2 0 0.1 0 0.2-0.1 0.2-0.1 0.3 0 0.1-0.1 0.2 0 0.1-0.1 0.1-0.1 0.1-0.2 0.1-0.1 0-0.2 0c-0.5 0-0.6-0.3-0.6-0.4q0-0.1 0-0.1 0-0.1 0-0.1 0-0.1 0.1-0.2 0 0 0-0.1 0 0 0 0 0-0.1 0-0.1 0 0 0-0.1 0 0 0-0.1 0.7-1.9 1.8-5.5c0.8-2.5 1.4-4.3 1.8-5.4h0.1q0-0.1 0.1-0.1 0 0 0.1 0 0-0.1 0.1-0.1 0 0 0.1 0c0.5 0 0.5 0 0.5 0.1q0 0 0 0 0 0 0 0 0 0 0 0 0 0 0 0 0 0.1 0.1 0.1 0 0.1 0.1 0.1 0 0.1 0.1 0.1 0 0 0.1 0v0.1q0 0.3 0 0.5 0 0.3 0 0.5 0 0.2 0.1 0.5 0.1 0.2 0.1 0.4v0.1q0 0.1 0 0.1 0 0.1 0 0.2 0 0.1 0 0.1 0 0.1 0 0.2 0 0.1 0 0.3 0 0.1 0 0.3 0 0.1 0.1 0.3 0 0.1 0 0.3c0.1 0.6 0.1 0.9 0.1 1.1q0.1 0.5 0.2 1 0.1 0.6 0.3 1.1 0.2 0.5 0.4 0.9 0.2 0.5 0.4 1 0 0 0.1-0.1 0 0 0 0 0 0 0-0.1 0 0 0.1 0 0-0.1 0-0.3 0.1-0.1 0.1-0.2 0.1-0.2 0.1-0.3 0.1-0.1 0.2-0.3 0-0.1 0.1-0.2 0-0.2 0.1-0.3 0-0.1 0.1-0.3 0-0.1 0-0.2l1.4-3.7q0.2-0.4 0.4-0.9 0.2-0.4 0.4-0.9 0.2-0.4 0.5-0.8 0.2-0.4 0.5-0.8v-0.1q0.1 0 0.1 0 0.1-0.1 0.2-0.1 0 0 0.1 0 0-0.1 0.1-0.1c0.4 0 0.4 0.3 0.4 0.4v0.1l-0.2 0.4q0 0 0 0 0 0.1 0 0.1 0 0 0 0 0 0.1 0 0.1v0.1h-0.1q-0.1 0-0.3 0.4 0 0 0 0.1 0 0-0.1 0.1 0 0 0 0.1-0.1 0-0.1 0c-0.1 0.2-0.2 0.4-0.4 1q-0.1 0.2-0.1 0.3-0.1 0.1-0.1 0.2-0.1 0.2-0.1 0.3 0 0.1 0 0.3-0.1 0.1-0.1 0.3-0.1 0.1-0.2 0.3 0 0.1-0.1 0.3-0.1 0.1-0.2 0.2"/>
			<path id="Path_46439" fill-rule="evenodd" class="s5" d="m104.7 54.4q0 0.1 0 0.1 0 0 0 0.1 0 0 0 0 0 0 0 0.1c0 0.3-0.2 0.5-0.3 0.5q-0.2 0.1-0.7 0.4h-0.1q-0.1 0-0.2 0-0.1-0.1-0.2-0.1-0.2 0-0.3-0.1-0.1-0.1-0.2-0.1v-0.1q0-0.1-0.1-0.1 0-0.1 0-0.2 0 0 0-0.1-0.1 0-0.1-0.1 0-0.1 0-0.1 0-0.1-0.1-0.1 0-0.1 0-0.1 0-0.1 0-0.1 0 0 0 0 0 0-0.1 0.1 0 0 0 0 0 0 0 0v0.1q-0.8 0.9-0.9 1-0.1 0.1-0.2 0.2-0.2 0-0.3 0.1-0.2 0-0.3 0.1-0.2 0-0.3 0 0 0-0.1 0 0 0 0 0-0.1 0-0.1 0 0 0-0.1 0-0.2-0.1-0.3-0.3-0.1-0.1-0.2-0.3 0-0.2-0.1-0.4 0-0.1 0-0.3 0-0.3 0-0.6 0-0.2 0.1-0.5 0-0.3 0.1-0.5 0-0.3 0.1-0.6 0.2-0.5 0.5-1 0.3-0.4 0.7-0.9 0.4-0.4 0.8-0.8 0.4-0.3 0.9-0.6h0.4c0.2 0 0.6 0.1 0.6 0.6q0 0 0 0 0 0 0 0 0 0.1-0.1 0.1 0 0 0 0 0.1 0 0.1-0.1 0.1 0 0.2-0.1 0 0 0.1 0 0-0.1 0.1-0.1h0.1v0.1q0.1 0 0.1 0.1 0 0 0.1 0.1 0 0 0 0.1 0 0.1 0 0.2 0 0 0 0.1 0 0 0 0.1 0 0 0 0.1 0 0-0.1 0.1-0.1 0.2-0.1 0.3-0.1 0.4-0.3 0.7-0.1 0.4-0.2 0.7-0.1 0.4-0.2 0.7 0 0.4-0.1 0.8 0 0.1 0 0.3 0 0.1 0.1 0.3 0 0.1 0.1 0.3 0 0.1 0.1 0.2 0.1 0 0.5-0.2 0-0.1 0.1-0.1 0.1 0 0.1 0 0.1-0.1 0.1-0.1 0.1 0 0.2 0h0.1zm-2.7-0.8q0.1-0.2 0.2-0.4 0.2-0.2 0.3-0.4 0.1-0.3 0.1-0.5 0.1-0.2 0.2-0.4 0.1-0.2 0.1-0.4 0.1-0.2 0.2-0.4 0-0.2 0.1-0.4-0.1 0.2-0.2 0.3-0.1 0.2-0.6 0.4h-0.1v-0.1q0-0.2 0-0.3 0.1-0.1 0.1-0.2 0.1-0.1 0.1-0.2 0.1-0.1 0.1-0.2 0.1-0.1 0.1-0.3 0 0 0 0 0 0 0 0 0 0 0 0 0 0 0 0 0-0.1 0-0.1 0 0 0 0 0 0 0 0 0 0 0 0 0 0 0 0 0 0.1-0.1 0.1 0 0 0 0 0 0.1 0 0.1-0.1 0-0.3 0.2-0.4 0.4-0.8 0.8-0.3 0.5-0.6 1-0.3 0.6-0.4 1.1-0.2 0.6-0.3 1.2c0 0.2 0.1 0.5 0.3 0.5q0.2-0.1 0.3-0.1 0.2-0.1 0.3-0.3 0.2-0.1 0.3-0.2 0.1-0.2 0.2-0.4 0.2-0.2 0.4-0.4z"/>
			<path id="Path_46440" fill-rule="evenodd" class="s5" d="m113.3 54.5q0 0 0 0 0 0.1 0 0.1 0 0 0 0.1c0 0.3-0.1 0.5-0.2 0.5-0.2 0.1-0.4 0.2-0.8 0.4q-0.1 0-0.3 0-0.1-0.1-0.2-0.1-0.1-0.1-0.2-0.1-0.1-0.1-0.2-0.1l-0.1-0.1q0-0.1 0-0.1 0-0.1-0.1-0.2 0 0 0-0.1 0 0 0-0.1-0.1-0.1-0.1-0.1 0-0.1 0-0.1 0-0.1 0-0.1-0.1-0.1-0.1-0.1 0 0 0 0 0 0 0 0.1 0 0 0 0 0 0-0.1 0c-0.5 0.7-0.8 1-0.9 1.1q-0.1 0.1-0.2 0.1-0.1 0.1-0.3 0.2-0.1 0-0.3 0.1-0.1 0-0.3 0 0 0 0 0-0.1 0-0.1 0 0 0-0.1 0 0 0 0 0h-0.1q0-0.1-0.1-0.2-0.1 0-0.1-0.1-0.1-0.1-0.1-0.1-0.1-0.1-0.1-0.2-0.2 0.1-0.3 0.2-0.2 0.1-0.3 0.1-0.2 0.1-0.3 0.1-0.2 0.1-0.3 0.1-0.1 0-0.1 0-0.1 0-0.1 0-0.1 0.1-0.1 0.1-0.1 0-0.1 0-0.1 0-0.3-0.1-0.1 0-0.2 0-0.1-0.1-0.2-0.1-0.1-0.1-0.2-0.2-0.1-0.2-0.2-0.3-0.1-0.2-0.1-0.4-0.1-0.2-0.1-0.3 0-0.2 0-0.4 0-0.3 0-0.7 0-0.3 0.1-0.6 0.1-0.4 0.2-0.7 0.1-0.3 0.2-0.6 0.1-0.1 0.2-0.2 0-0.2 0.1-0.3 0-0.1 0.1-0.2 0-0.2 0.1-0.3-0.2 0-0.3 0.1-0.2 0-0.3 0.1-0.1 0.1-0.3 0.2-0.1 0.1-0.2 0.2v0.1h-0.1q-0.4 0-0.6-0.7v-0.1q0-0.2 0.5-0.5 0.1-0.1 0.2-0.1 0.1-0.1 0.2-0.2 0.1 0 0.3 0 0.1-0.1 0.2-0.1 0.4 0 0.9-0.1 0.2-0.4 0.4-0.8 0.2-0.4 0.3-0.8 0.2-0.5 0.3-0.9 0.2-0.4 0.3-0.8v-0.1q0 0 0.1-0.1 0 0 0 0 0.1-0.1 0.2-0.1 0 0 0.1 0 0.3 0 0.6 0.4v0.1q-0.1 0.4-0.2 0.8 0 0.4-0.2 0.7-0.1 0.4-0.3 0.8-0.2 0.4-0.4 0.7 0.3 0 0.7 0.1 0.1 0 0.2 0 0.1 0.1 0.2 0.1 0.1 0.1 0.2 0.1 0.2 0.1 0.2 0.2h0.1v0.5h-0.1q-0.3 0-1.2 0-0.1 0-0.2 0-0.1 0-0.2 0-0.1 0-0.2 0-0.1 0-0.2 0.1-0.3 0.4-0.5 0.9-0.2 0.5-0.4 1-0.1 0.5-0.2 1-0.1 0.5-0.2 1.1 0 0 0 0.1 0.1 0 0.1 0.1 0 0 0 0.1 0 0 0 0.1c0 0 0.1 0.1 0.3 0.1q0.1 0 0.2 0 0 0 0.1 0 0 0 0.1 0 0.1 0 0.1-0.1 0.1 0 0.2 0 0.1 0 0.2-0.1 0.1 0 0.2-0.1 0 0 0.1-0.1 0.1 0 0.2-0.1 0-0.2 0.1-0.5 0-0.2 0-0.5 0-0.2 0.1-0.5 0.1-0.2 0.1-0.5 0.3-0.5 0.6-1 0.3-0.4 0.6-0.9 0.4-0.4 0.8-0.8 0.5-0.3 0.9-0.6h0.1 0.3q0.1 0 0.3 0 0.1 0.1 0.2 0.1 0 0.1 0.1 0.2 0 0.2 0 0.3 0 0 0 0 0 0 0 0 0 0.1 0 0.1 0 0 0 0 0-0.1 0.1-0.1 0 0 0.1-0.1 0.1 0 0.1 0 0.1-0.1 0.2-0.1v0.1q0.1 0 0.1 0.1 0.1 0 0.1 0.1 0 0 0 0.1 0.1 0.1 0.1 0.2 0 0-0.1 0.1 0 0 0 0.1 0 0 0 0.1 0 0 0 0.1-0.1 0.2-0.1 0.3-0.2 0.4-0.3 0.7-0.1 0.4-0.2 0.7-0.1 0.4-0.2 0.7-0.1 0.4-0.1 0.8-0.1 0.1-0.1 0.3 0.1 0.1 0.1 0.3 0 0.1 0.1 0.3 0.1 0.1 0.2 0.2 0.1 0 0.4-0.2 0.1-0.1 0.1-0.1 0.1 0 0.2 0 0-0.1 0.1-0.1 0.1 0 0.1 0h0.1q0 0.1 0 0.1zm-2.7-0.8q0.2-0.2 0.3-0.4 0.1-0.2 0.2-0.5 0.1-0.2 0.2-0.4 0.2-0.4 0.5-1.6-0.1 0.1-0.2 0.3-0.1 0.2-0.5 0.3l-0.2 0.1v-0.2q0.1-0.1 0.1-0.2 0-0.1 0.1-0.2 0-0.1 0.1-0.2 0-0.1 0.1-0.2 0-0.1 0.1-0.3 0 0 0 0 0 0 0 0 0 0 0-0.1 0 0 0 0 0 0 0 0 0 0 0 0 0 0 0 0 0 0 0-0.1-0.1 0.1-0.2 0.2-0.1 0.1-0.2 0.2-0.4 0.4-0.8 0.8-0.3 0.5-0.6 1-0.2 0.4-0.4 1-0.2 0.5-0.3 1h0.1l-0.1 0.1q0 0.1-0.1 0.2 0 0 0 0c0.1 0.3 0.2 0.5 0.3 0.6q0.2-0.1 0.4-0.2 0.1-0.1 0.3-0.2 0.1-0.1 0.3-0.3 0.1-0.1 0.2-0.3 0.2-0.2 0.3-0.4z"/>
			<path id="Path_46441" class="s5" d="m117.7 43.4v0.1q0 0.2-0.1 0.4 0 0.2-0.1 0.4 0 0.2-0.1 0.4 0 0.3-0.1 0.5 0 0.2-0.1 0.4 0 0.2-0.1 0.4 0 0.2-0.1 0.4 0 0.3 0 0.5h-0.1c0 0 0 0.1-0.1 0.3q0 0 0 0.1 0 0 0 0.1 0 0-0.1 0.1 0 0 0 0.1c-0.1 0.2-0.1 0.5-0.3 0.9 0 0.1-0.1 0.4-0.1 0.6q0 0.1-0.1 0.2 0 0.1 0 0.2-0.1 0.1-0.1 0.1 0 0.1-0.1 0.2 0 0.1 0 0.2 0 0.1-0.1 0.2 0 0.1 0 0.2-0.1 0-0.1 0.1 0 0.1-0.1 0.2 0 0.1 0 0.2-0.1 0.1-0.1 0.2 0 0.1-0.1 0.2 0 0.1 0 0.1-0.1 0.1-0.1 0.1 0 0.1-0.1 0.2 0 0.1 0 0.1l-0.1 0.1q-0.1 0-0.1 0 0 0.1 0 0.1-0.1 0-0.1 0 0 0-0.1 0 0 0 0 0 0 0 0 0 0 0 0 0-0.1 0-0.1 0v-0.1q-0.1-0.1-0.1-0.2 0 0 0-0.1 0-0.1 0-0.2 0.1-0.1 0.1-0.2 0-0.1 0-0.1 0 0 0 0 0-0.1 0-0.1 0 0 0-0.1v-0.1h0.1q0.2-0.8 0.6-2.4 0-0.1 0.1-0.2 0-0.2 0-0.3 0.1-0.1 0.1-0.2 0-0.1 0-0.3 0-0.1 0-0.1 0.1-0.1 0.1-0.1 0-0.1 0-0.1 0-0.1 0-0.1 0.1-0.3 0.2-0.6 0.1-0.3 0.1-0.5 0.1-0.3 0.2-0.6 0-0.3 0.1-0.6v-0.1q0 0 0-0.1 0-0.1 0.1-0.1 0-0.1 0-0.2 0 0 0-0.1 0 0 0.1-0.1 0 0 0-0.1 0 0 0 0 0-0.1 0-0.1 0-0.1 0-0.2 0 0 0-0.1 0 0-0.1-0.1 0 0 0-0.1l-0.1-0.1h0.1q0.1-0.1 0.2-0.1 0.1 0 0.1 0 0.1 0 0.2-0.1 0.1 0 0.2 0 0.1 0 0.1 0 0.1 0.1 0.2 0.1 0.1 0.1 0.1 0.2 0.1 0 0.1 0.1z"/>
			<path id="Path_46442" class="s5" d="m114.5 55q0.1 0.1 0.1 0.2 0 0 0 0.1 0 0.1-0.1 0.2 0 0 0 0.1-0.3 0.4-0.6 0.4 0 0 0 0 0 0 0 0 0 0 0 0 0 0 0 0-0.6-0.2-0.6-0.6 0 0 0-0.1 0-0.1 0-0.2 0.1 0 0.1-0.1 0.1-0.1 0.1-0.1 0.1-0.1 0.2-0.1 0-0.1 0.1-0.1 0.1 0 0.2 0 0.1 0 0.2 0l0.2 0.2q0.1 0 0.1 0.1z"/>
		</g>
	</g>
</svg>